<svg width="41" height="41" viewBox="0 0 41 41" fill="none" xmlns="http://www.w3.org/2000/svg">
<rect width="41" height="41" rx="11" fill="#1E1E1E"/>
<path d="M14.0209 6.50005C17.5213 6.22129 20.8505 9.4808 20.9899 13.4691M14.0209 6.50005C11.1098 6.63943 6.91248 9.75956 7.05186 13.4691M14.0209 6.50005C17.8698 6.77881 20.9899 9.68987 20.9899 13.4691M14.0209 6.50005C10.622 6.36067 6.98217 9.55049 7.05186 13.4691M20.9899 13.4691C21.199 17.3179 18.1485 20.1593 14.0209 20.4381M20.9899 13.4691C20.8505 17.3179 17.8001 20.1593 14.0209 20.4381M14.0209 20.4381C10.2417 20.1593 7.26093 17.1089 7.05186 13.4691M14.0209 20.4381C10.0326 20.3684 6.91248 17.3179 7.05186 13.4691" stroke="#FC5753" stroke-width="0.2"/>
<path d="M20.9899 13.4691C21.003 13.4472 20.9917 13.2678 20.9805 13.0228C20.9761 13.0228 21.0024 13.4254 20.9586 13.933C20.9761 13.9329 20.9686 13.2118 20.8956 12.5694C20.8476 12.5258 20.8476 13.4516 20.9349 14.2727C20.9567 14.4298 20.7917 13.1439 20.7574 12.1196C20.9448 12.1371 20.8142 13.3646 20.9448 14.8533C20.7752 14.8054 20.9403 13.1035 20.6797 11.7968C20.7709 11.8746 20.7709 13.3305 20.9096 15.3409C20.9265 15.0078 20.671 13.3756 20.6488 11.16C20.4334 11.3156 20.6919 13.4691 20.5196 15.5796C20.696 15.3866 20.3386 13.0271 20.2644 11.0453C20.6031 10.801 20.2952 13.5204 20.4492 15.778C20.3344 16.0346 20.1921 13.2682 20.1605 10.4465C20.2673 10.5018 20.4453 13.4691 20.564 16.377C20.4532 16.2465 19.9741 13.0842 20.0646 9.98521C19.7921 10.3803 20.3293 13.7377 20.195 16.8936C19.7731 16.8974 19.6617 13.4935 19.6212 9.38017C19.7556 9.58556 19.8303 13.5438 19.6809 17.4273C19.9833 17.125 19.7036 13.2097 19.9723 9.21614C19.9866 9.37283 19.6589 13.1414 19.9866 17.4015C19.9152 17.1383 19.6102 13.0399 18.9634 9.3686C19.6571 9.02689 19.124 13.3803 19.6571 17.556C19.5749 18.0035 19.6145 12.844 19.4697 8.23762C19.101 8.31684 18.9102 13.4691 19.2919 18.1443C18.8054 18.2397 18.552 13.61 18.89 8.48747C18.8931 8.38892 18.3851 13.2659 18.2835 18.5493C19.0006 18.9675 18.1045 13.638 18.7767 7.99484C18.1409 7.8846 18.8926 13.4691 18.8926 19.161C18.3529 18.8388 18.6205 13.0045 17.5665 7.72093C17.6661 8.05658 18.2299 13.3564 17.7789 18.5434C17.8866 18.646 18.0514 12.7697 17.1786 7.00858C17.2843 8.05571 18.2258 13.7045 18.1081 18.8825C18.2349 19.7132 17.8066 13.8376 17.7381 7.24214C17.1339 7.48426 17.1339 13.5913 17.8668 19.6982C17.7508 19.4519 17.4315 13.7423 17.4849 7.41173C17.3665 6.91113 17.2403 13.9736 16.6098 20.2793C17.2439 19.2632 16.2755 13.8938 16.7142 6.60573C16.8455 6.34152 16.0679 13.8579 17.1047 20.0783C16.0618 20.3422 16.1181 13.1327 15.9121 6.84118C15.9093 6.44351 15.6442 13.4691 15.6442 19.9645C16.0405 20.4986 15.6965 13.8096 16.1555 6.45135C15.214 6.44904 15.889 13.0641 16.294 20.6242C15.4819 19.8111 15.4043 13.9655 15.5988 6.62353C15.1898 6.76045 14.916 13.0584 14.916 20.4516C15.8774 19.9017 14.6975 13.4349 14.7566 6.83038C15.4474 6.69333 14.4795 12.7777 14.2029 20.798C14.7555 20.3832 14.3988 14.0036 14.8747 6.09756C14.5975 6.09653 14.7366 13.8864 14.0411 20.4244C14.1798 19.7278 13.8217 13.3229 13.8815 7.05734C14.1602 6.91824 13.8815 13.3297 13.4633 19.7412C13.8815 20.1595 13.1055 13.6153 12.8867 7.07109C13.1659 6.23564 13.0268 13.33 13.5833 19.7289C13.5833 20.5631 13.2266 12.9347 13.1474 6C13.7005 6.55505 12.5943 14.0222 12.8708 19.8301C13.2851 19.8325 13.4819 13.0904 12.302 6.48587C12.715 7.17118 12.5781 14.0168 13.2626 19.767C12.0349 20.4507 12.9094 13.5169 12.5598 6.85506C12.1527 7.12404 12.0177 13.8741 11.7477 20.2192C11.6185 19.8176 12.6129 13.1286 11.3319 6.97503C11.8673 6.57607 11.8673 13.7342 12.3975 19.5668C11.4739 19.4413 11.7925 12.8876 11.7177 6.7272C11.585 6.98948 11.4554 12.9507 11.1962 20.2079C11.0716 20.3325 11.3824 13.1723 11.3094 7.41919C10.6752 7.28947 11.3058 13.343 11.3058 20.2793C10.8052 20.2716 10.6102 13.6927 10.9119 7.36212C10.6635 6.9957 10.5414 13.2248 10.9078 20.0647C10.6635 19.816 10.4751 13.9405 10.2867 7.94489C10.2867 7.82034 10.7574 13.5868 9.81593 19.1179C10.7478 19.8144 10.5667 13.7074 9.69401 7.94634C9.47352 8.16934 9.36076 13.5819 9.36076 19.3327C9.3739 19.3274 9.53133 13.0526 9.02797 8.53992C9.90081 8.20679 9.68603 13.5765 9.68603 18.5166C9.16043 18.7343 9.51898 13.5093 9.14568 8.38892C9.25023 8.79533 9.35183 13.1643 9.04702 18.9557C9.34879 18.2536 9.194 13.1311 8.74354 9.09272C9.13148 9.08014 8.84524 13.8508 9.22689 18.6214C8.75631 18.6084 9.16459 13.5411 8.55896 8.56602C8.91766 9.38227 8.3846 13.1137 8.65113 18.2667C8.39485 18.0822 8.60239 13.8129 8.3828 9.03112C7.97317 9.70053 8.05509 13.2233 8.7105 17.8931C7.99108 17.8788 8.49479 13.5718 7.98003 10.0483C7.83798 9.58556 8.06203 13.3944 8.13671 17.2033C8.42052 17.1323 8.09623 13.7285 8.1267 9.75701C7.77956 10.0446 7.71241 13.402 7.64527 16.625C7.72402 16.5734 8.00431 13.6642 7.90493 10.6917C7.41837 10.3832 7.71509 13.2911 7.83378 16.377C7.8258 16.1596 7.84958 13.7807 7.76264 11.1251C7.74646 11.1089 7.38729 13.3665 7.54122 16.2398C7.30515 15.7985 7.37264 13.8167 7.53456 11.2684C7.43599 11.1864 7.43599 13.383 7.43599 15.5365C7.54846 15.5449 7.13742 13.796 7.42632 11.8915C7.23611 11.84 7.30544 13.3651 7.16679 15.1676C7.3924 15.1718 7.13181 13.8044 7.29689 12.1024C7.04469 12.2155 7.25362 13.5213 7.20139 14.6705C7.19708 14.8186 7.16283 13.6853 7.04137 12.6175C7.05438 12.6131 7.05438 13.4691 7.01944 14.2552C7.15925 14.3688 7.12554 13.7395 7 13.0446C7.08309 13.049 7.09184 13.4954 7.05683 13.9242C7.07872 13.8936 7.04995 13.6748 7.03432 13.4866C7.05183 13.4691 7.05183 13.4691 7.05183 13.4691" stroke="#FC5753" stroke-width="0.5"/>
<path d="M26.0209 19.9122C29.5213 19.6334 32.8505 22.8929 32.9899 26.8812M26.0209 19.9122C23.1098 20.0515 18.9125 23.1717 19.0519 26.8812M26.0209 19.9122C29.8698 20.1909 32.9899 23.102 32.9899 26.8812M26.0209 19.9122C22.622 19.7728 18.9822 22.9626 19.0519 26.8812M32.9899 26.8812C33.199 30.7301 30.1485 33.5714 26.0209 33.8502M32.9899 26.8812C32.8505 30.7301 29.8001 33.5714 26.0209 33.8502M26.0209 33.8502C22.2417 33.5714 19.2609 30.521 19.0519 26.8812M26.0209 33.8502C22.0326 33.7805 18.9125 30.7301 19.0519 26.8812" stroke="#4ECB71" stroke-width="0.2"/>
<path d="M32.9899 26.8812C33.003 26.8593 32.9917 26.6799 32.9805 26.4349C32.9761 26.4349 33.0024 26.8375 32.9586 27.3451C32.9761 27.345 32.9686 26.6239 32.8956 25.9815C32.8476 25.9379 32.8476 26.8638 32.9349 27.6848C32.9567 27.8419 32.7917 26.556 32.7574 25.5318C32.9448 25.5492 32.8142 26.7768 32.9448 28.2654C32.7752 28.2175 32.9403 26.5156 32.6797 25.2089C32.7709 25.2867 32.7709 26.7426 32.9096 28.753C32.9265 28.4199 32.671 26.7877 32.6488 24.5721C32.4334 24.7277 32.6919 26.8812 32.5196 28.9917C32.696 28.7987 32.3386 26.4392 32.2644 24.4574C32.6031 24.2131 32.2952 26.9325 32.4492 29.1901C32.3344 29.4467 32.1921 26.6803 32.1605 23.8586C32.2673 23.914 32.4453 26.8812 32.564 29.7891C32.4532 29.6587 31.9741 26.4963 32.0646 23.3973C31.7921 23.7925 32.3293 27.1498 32.195 30.3057C31.7731 30.3095 31.6617 26.9057 31.6212 22.7923C31.7556 22.9977 31.8303 26.9559 31.6809 30.8395C31.9833 30.5371 31.7036 26.6218 31.9723 22.6282C31.9866 22.7849 31.6589 26.5535 31.9866 30.8137C31.9152 30.5504 31.6102 26.452 30.9634 22.7807C31.6571 22.439 31.124 26.7924 31.6571 30.9681C31.5749 31.4156 31.6145 26.2562 31.4697 21.6497C31.101 21.729 30.9102 26.8812 31.2919 31.5564C30.8054 31.6518 30.552 27.0221 30.89 21.8996C30.8931 21.801 30.3851 26.678 30.2835 31.9614C31.0006 32.3796 30.1045 27.0501 30.7767 21.407C30.1409 21.2967 30.8926 26.8812 30.8926 32.5731C30.3529 32.2509 30.6205 26.4167 29.5665 21.133C29.6661 21.4687 30.2299 26.7685 29.7789 31.9555C29.8866 32.0582 30.0514 26.1818 29.1786 20.4207C29.2843 21.4678 30.2258 27.1166 30.1081 32.2946C30.2349 33.1253 29.8066 27.2497 29.7381 20.6543C29.1339 20.8964 29.1339 27.0034 29.8668 33.1104C29.7508 32.864 29.4315 27.1544 29.4849 20.8238C29.3665 20.3232 29.2403 27.3857 28.6098 33.6914C29.2439 32.6753 28.2755 27.306 28.7142 20.0178C28.8455 19.7536 28.0679 27.27 29.1047 33.4904C28.0618 33.7543 28.1181 26.5448 27.9121 20.2533C27.9093 19.8556 27.6442 26.8812 27.6442 33.3766C28.0405 33.9107 27.6965 27.2217 28.1555 19.8635C27.214 19.8611 27.889 26.4762 28.294 34.0363C27.4819 33.2232 27.4043 27.3776 27.5988 20.0356C27.1898 20.1726 26.916 26.4705 26.916 33.8637C27.8774 33.3138 26.6975 26.847 26.7566 20.2425C27.4474 20.1054 26.4795 26.1898 26.2029 34.2101C26.7555 33.7953 26.3988 27.4157 26.8747 19.5097C26.5975 19.5086 26.7366 27.2985 26.0411 33.8365C26.1798 33.1399 25.8217 26.735 25.8815 20.4694C26.1602 20.3303 25.8815 26.7418 25.4633 33.1533C25.8815 33.5716 25.1055 27.0274 24.8867 20.4832C25.1659 19.6477 25.0268 26.7421 25.5833 33.141C25.5833 33.9752 25.2266 26.3468 25.1474 19.4121C25.7005 19.9672 24.5943 27.4343 24.8708 33.2422C25.2851 33.2446 25.4819 26.5025 24.302 19.898C24.715 20.5833 24.5781 27.4289 25.2626 33.1792C24.0349 33.8628 24.9094 26.929 24.5598 20.2672C24.1527 20.5362 24.0177 27.2862 23.7477 33.6313C23.6185 33.2298 24.6129 26.5408 23.3319 20.3871C23.8673 19.9882 23.8673 27.1463 24.3975 32.9789C23.4739 32.8534 23.7925 26.2997 23.7177 20.1393C23.585 20.4016 23.4554 26.3629 23.1962 33.62C23.0716 33.7446 23.3824 26.5844 23.3094 20.8313C22.6752 20.7016 23.3058 26.7551 23.3058 33.6914C22.8052 33.6837 22.6102 27.1048 22.9119 20.7742C22.6635 20.4078 22.5414 26.6369 22.9078 33.4768C22.6635 33.2282 22.4751 27.3526 22.2867 21.357C22.2867 21.2325 22.7574 26.9989 21.8159 32.53C22.7478 33.2265 22.5667 27.1195 21.694 21.3584C21.4735 21.5815 21.3608 26.994 21.3608 32.7448C21.3739 32.7395 21.5313 26.4647 21.028 21.952C21.9008 21.6189 21.686 26.9886 21.686 31.9288C21.1604 32.1464 21.519 26.9214 21.1457 21.801C21.2502 22.2074 21.3518 26.5764 21.047 32.3678C21.3488 31.6657 21.194 26.5432 20.7435 22.5048C21.1315 22.4922 20.8452 27.2629 21.2269 32.0335C20.7563 32.0205 21.1646 26.9532 20.559 21.9781C20.9177 22.7944 20.3846 26.5258 20.6511 31.6788C20.3948 31.4943 20.6024 27.225 20.3828 22.4432C19.9732 23.1126 20.0551 26.6354 20.7105 31.3052C19.9911 31.2909 20.4948 26.9839 19.98 23.4604C19.838 22.9977 20.062 26.8065 20.1367 30.6154C20.4205 30.5445 20.0962 27.1406 20.1267 23.1691C19.7796 23.4567 19.7124 26.8141 19.6453 30.0371C19.724 29.9855 20.0043 27.0763 19.9049 24.1038C19.4184 23.7953 19.7151 26.7032 19.8338 29.7891C19.8258 29.5717 19.8496 27.1928 19.7626 24.5372C19.7465 24.521 19.3873 26.7786 19.5412 29.6519C19.3052 29.2106 19.3726 27.2288 19.5346 24.6805C19.436 24.5985 19.436 26.7951 19.436 28.9486C19.5485 28.957 19.1374 27.2081 19.4263 25.3036C19.2361 25.2521 19.3054 26.7772 19.1668 28.5797C19.3924 28.5839 19.1318 27.2165 19.2969 25.5145C19.0447 25.6276 19.2536 26.9335 19.2014 28.0826C19.1971 28.2307 19.1628 27.0974 19.0414 26.0296C19.0544 26.0252 19.0544 26.8812 19.0194 27.6673C19.1593 27.7809 19.1255 27.1516 19 26.4567C19.0831 26.4611 19.0918 26.9075 19.0568 27.3363C19.0787 27.3057 19.05 27.0869 19.0343 26.8987C19.0518 26.8812 19.0518 26.8812 19.0518 26.8812" stroke="#4ECB71" stroke-width="0.5"/>
<path d="M19.9032 13.4415C23.4036 13.1627 26.7328 16.4222 26.8722 20.4105M19.9032 13.4415C16.9921 13.5808 12.7948 16.701 12.9342 20.4105M19.9032 13.4415C23.7521 13.7202 26.8722 16.6313 26.8722 20.4105M19.9032 13.4415C16.5043 13.3021 12.8645 16.4919 12.9342 20.4105M26.8722 20.4105C27.0813 24.2594 24.0308 27.1007 19.9032 27.3795M26.8722 20.4105C26.7328 24.2594 23.6824 27.1007 19.9032 27.3795M19.9032 27.3795C16.124 27.1007 13.1433 24.0503 12.9342 20.4105M19.9032 27.3795C15.9149 27.3098 12.7948 24.2594 12.9342 20.4105" stroke="#FDBC40" stroke-width="0.2"/>
<path d="M26.8722 20.4105C26.8853 20.3886 26.8741 20.2092 26.8628 19.9642C26.8584 19.9642 26.8847 20.3668 26.8409 20.8744C26.8584 20.8743 26.851 20.1532 26.7779 19.5108C26.7299 19.4672 26.7299 20.393 26.8172 21.2141C26.839 21.3712 26.674 20.0853 26.6397 19.061C26.8271 19.0785 26.6965 20.306 26.8271 21.7947C26.6575 21.7468 26.8226 20.0449 26.562 18.7382C26.6532 18.816 26.6532 20.2719 26.7919 22.2823C26.8088 21.9492 26.5533 20.317 26.5311 18.1014C26.3157 18.257 26.5742 20.4105 26.4019 22.521C26.5783 22.328 26.2209 19.9685 26.1467 17.9867C26.4854 17.7424 26.1776 20.4618 26.3315 22.7194C26.2167 22.976 26.0744 20.2096 26.0429 17.3879C26.1496 17.4433 26.3276 20.4105 26.4463 23.3184C26.3355 23.1879 25.8564 20.0256 25.9469 16.9266C25.6744 17.3218 26.2116 20.6791 26.0773 23.835C25.6554 23.8388 25.544 20.435 25.5035 16.3216C25.6379 16.527 25.7126 20.4852 25.5633 24.3688C25.8657 24.0664 25.5859 20.1511 25.8546 16.1575C25.8689 16.3142 25.5412 20.0828 25.8689 24.343C25.7975 24.0797 25.4925 19.9813 24.8458 16.31C25.5394 15.9683 25.0064 20.3217 25.5394 24.4974C25.4572 24.9449 25.4968 19.7854 25.3521 15.179C24.9834 15.2582 24.7925 20.4105 25.1742 25.0857C24.6877 25.1811 24.4344 20.5514 24.7724 15.4289C24.7754 15.3303 24.2674 20.2073 24.1658 25.4907C24.8829 25.9089 23.9868 20.5794 24.659 14.9362C24.0232 14.826 24.775 20.4105 24.775 26.1024C24.2353 25.7802 24.5028 19.946 23.4488 14.6623C23.5484 14.998 24.1122 20.2978 23.6612 25.4848C23.7689 25.5875 23.9337 19.7111 23.061 13.95C23.1666 14.9971 24.1081 20.6459 23.9904 25.8239C24.1172 26.6546 23.6889 20.779 23.6204 14.1836C23.0162 14.4257 23.0162 20.5327 23.7491 26.6397C23.6331 26.3933 23.3139 20.6837 23.3672 14.3531C23.2488 13.8525 23.1227 20.915 22.4921 27.2207C23.1263 26.2046 22.1579 20.8352 22.5966 13.5471C22.7278 13.2829 21.9503 20.7993 22.987 27.0197C21.9441 27.2836 22.0004 20.0741 21.7944 13.7826C21.7916 13.3849 21.5265 20.4105 21.5265 26.9059C21.9229 27.44 21.5788 20.751 22.0378 13.3928C21.0963 13.3904 21.7713 20.0055 22.1763 27.5656C21.3643 26.7525 21.2866 20.9069 21.4811 13.5649C21.0721 13.7019 20.7983 19.9998 20.7983 27.393C21.7597 26.8431 20.5798 20.3763 20.639 13.7718C21.3297 13.6347 20.3618 19.7191 20.0852 27.7394C20.6379 27.3246 20.2812 20.945 20.757 13.039C20.4799 13.0379 20.619 20.8278 19.9234 27.3658C20.0621 26.6692 19.704 20.2643 19.7639 13.9987C20.0426 13.8596 19.7638 20.2711 19.3457 26.6826C19.7639 27.1009 18.9878 20.5567 18.769 14.0125C19.0483 13.177 18.9092 20.2714 19.4656 26.6703C19.4656 27.5045 19.1089 19.8761 19.0297 12.9414C19.5828 13.4965 18.4766 20.9636 18.7532 26.7715C19.1674 26.7739 19.3642 20.0318 18.1843 13.4273C18.5973 14.1126 18.4604 20.9582 19.145 26.7084C17.9172 27.3921 18.7918 20.4583 18.4421 13.7965C18.035 14.0654 17.9 20.8155 17.63 27.1606C17.5008 26.7591 18.4952 20.0701 17.2142 13.9164C17.7496 13.5175 17.7496 20.6756 18.2799 26.5082C17.3562 26.3827 17.6748 19.829 17.6 13.6686C17.4673 13.9309 17.3377 19.8921 17.0785 27.1493C16.954 27.2739 17.2647 20.1137 17.1917 14.3606C16.5576 14.2309 17.1881 20.2844 17.1881 27.2207C16.6875 27.213 16.4925 20.6341 16.7942 14.3035C16.5458 13.9371 16.4237 20.1662 16.7901 27.0061C16.5458 26.7575 16.3574 20.8819 16.169 14.8863C16.169 14.7617 16.6397 20.5282 15.6983 26.0593C16.6301 26.7558 16.4491 20.6488 15.5763 14.8877C15.3558 15.1107 15.2431 20.5233 15.2431 26.2741C15.2562 26.2688 15.4137 19.994 14.9103 15.4813C15.7831 15.1482 15.5683 20.5179 15.5683 25.4581C15.0428 25.6757 15.4013 20.4507 15.028 15.3303C15.1326 15.7367 15.2342 20.1057 14.9293 25.8971C15.2311 25.195 15.0763 20.0725 14.6259 16.0341C15.0138 16.0215 14.7276 20.7922 15.1092 25.5628C14.6386 25.5498 15.0469 20.4825 14.4413 15.5074C14.8 16.3237 14.2669 20.0551 14.5335 25.2081C14.2772 25.0236 14.4847 20.7543 14.2651 15.9725C13.8555 16.6419 13.9374 20.1647 14.5928 24.8345C13.8734 24.8202 14.3771 20.5132 13.8624 16.9897C13.7203 16.527 13.9444 20.3358 14.019 24.1447C14.3028 24.0738 13.9786 20.6699 14.009 16.6984C13.6619 16.986 13.5947 20.3434 13.5276 23.5664C13.6063 23.5148 13.8866 20.6056 13.7873 17.6331C13.3007 17.3246 13.5974 20.2325 13.7161 23.3184C13.7081 23.101 13.7319 20.7221 13.645 18.0665C13.6288 18.0503 13.2696 20.3079 13.4235 23.1812C13.1875 22.7399 13.255 20.7581 13.4169 18.2098C13.3183 18.1278 13.3183 20.3244 13.3183 22.4779C13.4308 22.4863 13.0197 20.7374 13.3086 18.8329C13.1184 18.7814 13.1878 20.3065 13.0491 22.109C13.2747 22.1132 13.0141 20.7458 13.1792 19.0438C12.927 19.1569 13.1359 20.4628 13.0837 21.6119C13.0794 21.76 13.0452 20.6267 12.9237 19.5589C12.9367 19.5545 12.9367 20.4105 12.9018 21.1966C13.0416 21.3102 13.0079 20.6809 12.8823 19.986C12.9654 19.9904 12.9742 20.4368 12.9392 20.8656C12.961 20.835 12.9323 20.6162 12.9166 20.428C12.9342 20.4105 12.9342 20.4105 12.9342 20.4105" stroke="#FDBC40" stroke-width="0.5"/>
</svg>
